<?xml version="1.0" encoding="UTF-8"?>
<svg xmlns="http://www.w3.org/2000/svg" xmlns:xlink="http://www.w3.org/1999/xlink" width="1148.98pt" height="598.27pt" viewBox="0 0 1148.98 598.27" version="1.1">
<defs>
<clipPath id="clip1">
  <path d="M 408 434 L 725 434 L 725 598.269531 L 408 598.269531 Z M 408 434 "/>
</clipPath>
<clipPath id="clip2">
  <path d="M 0 0 L 1148.980469 0 L 1148.980469 530 L 0 530 Z M 0 0 "/>
</clipPath>
<clipPath id="clip3">
  <path d="M 852 0 L 1148.980469 0 L 1148.980469 264 L 852 264 Z M 852 0 "/>
</clipPath>
<clipPath id="clip4">
  <path d="M 900 0 L 1148.980469 0 L 1148.980469 213 L 900 213 Z M 900 0 "/>
</clipPath>
</defs>
<g id="surface1">
<path style="fill:none;stroke-width:40;stroke-linecap:butt;stroke-linejoin:miter;stroke:rgb(0.39978%,0.39978%,0.39978%);stroke-opacity:1;stroke-miterlimit:10;" d="M 3873.59375 1107.114063 L 4093.164063 667.973438 L 4775.039063 887.54375 L 5156.40625 1037.778125 L 5306.640625 1107.114063 Z M 3873.59375 1107.114063 " transform="matrix(0.1,0,0,-0.1,0,598.27)"/>
<path style="fill:none;stroke-width:40;stroke-linecap:butt;stroke-linejoin:miter;stroke:rgb(0.799561%,1.199341%,1.199341%);stroke-opacity:1;stroke-miterlimit:10;" d="M 7618.007813 1211.1375 L 7329.101563 667.973438 L 6173.398438 1107.114063 Z M 7618.007813 1211.1375 " transform="matrix(0.1,0,0,-0.1,0,598.27)"/>
<path style="fill:none;stroke-width:20;stroke-linecap:butt;stroke-linejoin:miter;stroke:rgb(0.39978%,0.39978%,0.39978%);stroke-opacity:1;stroke-miterlimit:10;" d="M 4031.875 1195.395313 C 4065.078125 1170.5125 4172.96875 871.7625 4172.96875 871.7625 L 4903.164063 1153.910938 " transform="matrix(0.1,0,0,-0.1,0,598.27)"/>
<path style="fill:none;stroke-width:20;stroke-linecap:butt;stroke-linejoin:miter;stroke:rgb(0.799561%,1.199341%,1.199341%);stroke-opacity:1;stroke-miterlimit:10;" d="M 6502.617188 1180.864063 L 7257.734375 857.23125 L 7448.59375 1255.551563 " transform="matrix(0.1,0,0,-0.1,0,598.27)"/>
<path style=" stroke:none;fill-rule:nonzero;fill:rgb(100%,100%,100%);fill-opacity:1;" d="M 682.058594 487.558594 C 682.058594 487.558594 662.414063 515.296875 658.945313 524.539063 C 658.945313 524.539063 606.941406 518.761719 573.425781 569.613281 C 573.425781 569.613281 539.910156 523.382813 487.902344 528.585938 C 487.902344 528.585938 469.414063 486.402344 450.921875 477.15625 "/>
<g clip-path="url(#clip1)" clip-rule="nonzero">
<path style="fill:none;stroke-width:30;stroke-linecap:butt;stroke-linejoin:miter;stroke:rgb(0.799561%,1.199341%,1.199341%);stroke-opacity:1;stroke-miterlimit:10;" d="M 6820.585938 1107.114063 C 6820.585938 1107.114063 6624.140625 829.73125 6589.453125 737.309375 C 6589.453125 737.309375 6069.414063 795.082813 5734.257813 286.567188 C 5734.257813 286.567188 5399.101563 748.871875 4879.023438 696.840625 C 4879.023438 696.840625 4694.140625 1118.676563 4509.21875 1211.1375 Z M 6820.585938 1107.114063 " transform="matrix(0.1,0,0,-0.1,0,598.27)"/>
</g>
<path style=" stroke:none;fill-rule:nonzero;fill:rgb(0.799561%,1.199341%,1.199341%);fill-opacity:1;" d="M 535.289063 487.558594 L 524.96875 504.316406 C 524.96875 504.316406 555.707031 514.09375 573.425781 531.472656 C 573.425781 531.472656 616.183594 501.425781 627.742188 509.515625 L 617.339844 487.558594 C 617.339844 487.558594 527.195313 484.089844 535.289063 487.558594 "/>
<path style="fill:none;stroke-width:30;stroke-linecap:butt;stroke-linejoin:miter;stroke:rgb(100%,100%,100%);stroke-opacity:1;stroke-miterlimit:10;" d="M 5739.21875 655.98125 L 5739.21875 1137.270313 " transform="matrix(0.1,0,0,-0.1,0,598.27)"/>
<path style=" stroke:none;fill-rule:nonzero;fill:rgb(100%,100%,100%);fill-opacity:1;" d="M 914.769531 448.503906 C 914.769531 448.503906 947.945313 438.332031 950.125 417.265625 C 950.125 417.265625 958.84375 408.546875 944.3125 376.585938 L 1046.980469 287.957031 L 984.992188 241.222656 C 984.992188 241.222656 1040.199219 210.953125 1057.640625 247.761719 C 1057.640625 247.761719 1101.230469 216.765625 1114.789063 164.460938 C 1114.789063 164.460938 1068.289063 180.925781 1035.359375 179.957031 C 1035.359375 179.957031 1129.308594 73.414063 1144.808594 7.546875 C 1144.808594 7.546875 1082.820313 59.851563 1057.640625 85.035156 C 1057.640625 85.035156 1018.890625 108.28125 982.089844 112.15625 C 982.089844 112.15625 957.875 119.90625 943.34375 122.8125 C 943.34375 122.8125 970.464844 94.722656 967.558594 52.105469 C 967.558594 52.105469 866.824219 125.71875 822.269531 120.875 C 822.269531 120.875 825.175781 117 829.050781 104.40625 C 829.050781 104.40625 843.578125 91.816406 849.875 87.941406 C 849.875 87.941406 857.140625 78.257813 861.980469 68.570313 C 861.980469 68.570313 850.359375 81.160156 822.269531 79.222656 C 822.269531 79.222656 797.085938 86.972656 789.339844 100.535156 L 774.808594 123.78125 L 722.503906 122.328125 L 715.722656 95.691406 L 691.507813 69.539063 C 691.507813 69.539063 690.539063 97.628906 687.636719 97.628906 L 683.285156 118.839844 L 682.46875 130.074219 L 639.203125 128.140625 L 639.203125 117.96875 L 579.152344 49.199219 L 553.976563 51.136719 L 497.789063 124.265625 L 463.890625 125.71875 C 463.890625 125.71875 455.171875 77.285156 455.171875 73.414063 L 455.171875 69.539063 C 455.171875 69.539063 422.238281 101.503906 422.238281 107.3125 L 416.429688 119.90625 L 421.269531 133.46875 L 408.679688 152.679688 L 408.679688 118.9375 L 366.0625 119.90625 C 366.0625 119.90625 336.035156 85.035156 322.472656 79.222656 C 308.914063 73.414063 322.472656 75.351563 322.472656 75.351563 L 284.699219 73.414063 L 295.351563 91.816406 C 295.351563 91.816406 312.789063 106.34375 313.757813 110.21875 L 321.503906 130.558594 L 299.710938 123.78125 L 295.351563 111.1875 C 295.351563 111.1875 208.179688 96.660156 173.308594 46.292969 C 173.308594 46.292969 171.371094 86.003906 181.058594 101.503906 L 191.714844 121.84375 L 173.152344 112.15625 L 85.167969 87.941406 L 42.546875 54.039063 L 21.238281 22.078125 L 4.773438 7.546875 C 4.773438 7.546875 23.175781 71.476563 30.925781 82.128906 C 30.925781 82.128906 85.167969 163.492188 107.445313 178.019531 L 25.113281 162.523438 C 25.113281 162.523438 54.171875 228.386719 89.042969 245.824219 C 89.042969 245.824219 104.539063 236.136719 114.226563 234.199219 L 145.222656 235.167969 L 160.71875 248.730469 L 106.476563 287.957031 L 205.757813 373.195313 L 191.714844 454.070313 L 196.070313 458.914063 "/>
<g clip-path="url(#clip2)" clip-rule="nonzero">
<path style="fill:none;stroke-width:50;stroke-linecap:butt;stroke-linejoin:miter;stroke:rgb(0.39978%,0.39978%,0.39978%);stroke-opacity:1;stroke-miterlimit:10;" d="M 9147.695313 1497.660938 C 9147.695313 1497.660938 9479.453125 1599.379688 9501.25 1810.04375 C 9501.25 1810.04375 9588.4375 1897.23125 9443.125 2216.840625 L 10469.804688 3103.129688 L 9849.921875 3570.473438 C 9849.921875 3570.473438 10401.992188 3873.16875 10576.40625 3505.082813 C 10576.40625 3505.082813 11012.304688 3815.04375 11147.890625 4338.090625 C 11147.890625 4338.090625 10682.890625 4173.442188 10353.59375 4183.129688 C 10353.59375 4183.129688 11293.085938 5248.559375 11448.085938 5907.23125 C 11448.085938 5907.23125 10828.203125 5384.184375 10576.40625 5132.348438 C 10576.40625 5132.348438 10188.90625 4899.8875 9820.898438 4861.1375 C 9820.898438 4861.1375 9578.75 4783.6375 9433.4375 4754.575 C 9433.4375 4754.575 9704.648438 5035.473438 9675.585938 5461.645313 C 9675.585938 5461.645313 8668.242188 4725.5125 8222.695313 4773.95 C 8222.695313 4773.95 8251.757813 4812.7 8290.507813 4938.6375 C 8290.507813 4938.6375 8435.78125 5064.535938 8498.75 5103.285938 C 8498.75 5103.285938 8571.40625 5200.121875 8619.804688 5296.996875 C 8619.804688 5296.996875 8503.59375 5171.098438 8222.695313 5190.473438 C 8222.695313 5190.473438 7970.859375 5112.973438 7893.398438 4977.348438 L 7748.085938 4744.8875 L 7225.039063 4759.41875 L 7157.226563 5025.785938 L 6915.078125 5287.309375 C 6915.078125 5287.309375 6905.390625 5006.410938 6876.367188 5006.410938 L 6832.851563 4794.301563 L 6824.6875 4681.957813 L 6392.03125 4701.29375 L 6392.03125 4803.0125 L 5791.523438 5490.707813 L 5539.765625 5471.332813 L 4977.890625 4740.04375 L 4638.90625 4725.5125 C 4638.90625 4725.5125 4551.71875 5209.848438 4551.71875 5248.559375 L 4551.71875 5287.309375 C 4551.71875 5287.309375 4222.382813 4967.660938 4222.382813 4909.575 L 4164.296875 4783.6375 L 4212.695313 4648.0125 L 4086.796875 4455.903125 L 4086.796875 4793.325 L 3660.625 4783.6375 C 3660.625 4783.6375 3360.351563 5132.348438 3224.726563 5190.473438 C 3089.140625 5248.559375 3224.726563 5229.184375 3224.726563 5229.184375 L 2846.992188 5248.559375 L 2953.515625 5064.535938 C 2953.515625 5064.535938 3127.890625 4919.2625 3137.578125 4880.5125 L 3215.039063 4677.114063 L 2997.109375 4744.8875 L 2953.515625 4870.825 C 2953.515625 4870.825 2081.796875 5016.098438 1733.085938 5519.770313 C 1733.085938 5519.770313 1713.710938 5122.660938 1810.585938 4967.660938 L 1917.148438 4764.2625 L 1731.523438 4861.1375 L 851.679688 5103.285938 L 425.46875 5442.309375 L 212.382813 5761.91875 L 47.734375 5907.23125 C 47.734375 5907.23125 231.757813 5267.934375 309.257813 5161.410938 C 309.257813 5161.410938 851.679688 4347.778125 1074.453125 4202.504688 L 251.132813 4357.465625 C 251.132813 4357.465625 541.71875 3698.832813 890.429688 3524.457813 C 890.429688 3524.457813 1045.390625 3621.332813 1142.265625 3640.707813 L 1452.226563 3631.020313 L 1607.1875 3495.395313 L 1064.765625 3103.129688 L 2057.578125 2250.746875 L 1917.148438 1441.996875 L 1960.703125 1393.559375 Z M 9147.695313 1497.660938 " transform="matrix(0.1,0,0,-0.1,0,598.27)"/>
</g>
<path style=" stroke:none;fill-rule:nonzero;fill:rgb(100%,100%,100%);fill-opacity:1;" d="M 210.117188 216.765625 C 210.117188 216.765625 191.714844 187.707031 168.464844 190.613281 C 168.464844 190.613281 148.128906 198.15625 145.21875 203.585938 C 145.21875 203.585938 122.59375 192.0625 107.445313 178.019531 C 107.445313 178.019531 46.957031 117.757813 30.925781 76.316406 C 30.925781 76.316406 4.773438 26.921875 4.773438 10.453125 L 21.242188 24.984375 L 42.550781 54.039063 C 42.550781 54.039063 72.574219 75.351563 85.167969 87.941406 C 85.167969 87.941406 167.496094 107.3125 191.714844 121.84375 C 191.714844 121.84375 209.148438 131.527344 221.738281 138.308594 "/>
<path style="fill:none;stroke-width:40;stroke-linecap:butt;stroke-linejoin:miter;stroke:rgb(0.799561%,1.199341%,1.199341%);stroke-opacity:1;stroke-miterlimit:10;" d="M 2101.171875 3815.04375 C 2101.171875 3815.04375 1917.148438 4105.629688 1684.648438 4076.567188 C 1684.648438 4076.567188 1481.289063 4001.1375 1452.1875 3946.840625 C 1452.1875 3946.840625 1225.9375 4062.075 1074.453125 4202.504688 C 1074.453125 4202.504688 469.570313 4805.121875 309.257813 5219.535938 C 309.257813 5219.535938 47.734375 5713.48125 47.734375 5878.16875 L 212.421875 5732.85625 L 425.507813 5442.309375 C 425.507813 5442.309375 725.742188 5229.184375 851.679688 5103.285938 C 851.679688 5103.285938 1674.960938 4909.575 1917.148438 4764.2625 C 1917.148438 4764.2625 2091.484375 4667.426563 2217.382813 4599.614063 Z M 2101.171875 3815.04375 " transform="matrix(0.1,0,0,-0.1,0,598.27)"/>
<path style=" stroke:none;fill-rule:nonzero;fill:rgb(100%,100%,100%);fill-opacity:1;" d="M 945.28125 207.078125 C 945.28125 207.078125 982.089844 172.210938 996.617188 207.078125 C 996.617188 207.078125 1022.460938 198.453125 1052.980469 158.980469 C 1052.980469 158.980469 1122.53125 77.285156 1144.808594 7.546875 C 1144.808594 7.546875 1067.320313 73.414063 1057.640625 85.035156 C 1057.640625 85.035156 964.652344 122.8125 943.34375 122.8125 C 943.34375 122.8125 914.769531 159.132813 908.960938 178.503906 C 908.960938 178.503906 949.15625 182.863281 945.28125 207.078125 "/>
<g clip-path="url(#clip3)" clip-rule="nonzero">
<path style="fill:none;stroke-width:40;stroke-linecap:butt;stroke-linejoin:miter;stroke:rgb(0.39978%,0.39978%,0.39978%);stroke-opacity:1;stroke-miterlimit:10;" d="M 9452.8125 3911.91875 C 9452.8125 3911.91875 9820.898438 4260.590625 9966.171875 3911.91875 C 9966.171875 3911.91875 10224.609375 3998.16875 10529.804688 4392.895313 C 10529.804688 4392.895313 11225.3125 5209.848438 11448.085938 5907.23125 C 11448.085938 5907.23125 10673.203125 5248.559375 10576.40625 5132.348438 C 10576.40625 5132.348438 9646.523438 4754.575 9433.4375 4754.575 C 9433.4375 4754.575 9147.695313 4391.371875 9089.609375 4197.660938 C 9089.609375 4197.660938 9491.5625 4154.067188 9452.8125 3911.91875 Z M 9452.8125 3911.91875 " transform="matrix(0.1,0,0,-0.1,0,598.27)"/>
</g>
<path style="fill:none;stroke-width:20;stroke-linecap:butt;stroke-linejoin:miter;stroke:rgb(0.39978%,0.39978%,0.39978%);stroke-opacity:1;stroke-miterlimit:10;" d="M 5253.945313 4562.465625 L 5651.054688 5298.598438 L 6038.515625 4630.278125 L 5951.328125 4368.754688 L 5646.210938 4223.48125 Z M 5253.945313 4562.465625 " transform="matrix(0.1,0,0,-0.1,0,598.27)"/>
<path style="fill:none;stroke-width:20;stroke-linecap:butt;stroke-linejoin:miter;stroke:rgb(0.39978%,0.39978%,0.39978%);stroke-opacity:1;stroke-miterlimit:10;" d="M 4362.851563 4562.465625 C 4362.851563 4562.465625 4270.820313 4916.020313 4532.34375 5255.04375 " transform="matrix(0.1,0,0,-0.1,0,598.27)"/>
<path style="fill:none;stroke-width:20;stroke-linecap:butt;stroke-linejoin:miter;stroke:rgb(0.39978%,0.39978%,0.39978%);stroke-opacity:1;stroke-miterlimit:10;" d="M 2880.898438 5240.5125 C 2880.898438 5240.5125 3074.609375 5104.8875 3229.570313 5066.1375 C 3229.570313 5066.1375 3413.632813 4843.364063 3432.96875 4610.903125 L 3432.96875 4484.965625 " transform="matrix(0.1,0,0,-0.1,0,598.27)"/>
<path style="fill:none;stroke-width:20;stroke-linecap:butt;stroke-linejoin:miter;stroke:rgb(0.39978%,0.39978%,0.39978%);stroke-opacity:1;stroke-miterlimit:10;" d="M 2357.851563 4761.059375 C 2357.851563 4761.059375 1946.171875 4901.489063 1742.773438 5492.348438 " transform="matrix(0.1,0,0,-0.1,0,598.27)"/>
<path style="fill:none;stroke-width:20;stroke-linecap:butt;stroke-linejoin:miter;stroke:rgb(0.39978%,0.39978%,0.39978%);stroke-opacity:1;stroke-miterlimit:10;" d="M 2212.539063 4136.29375 C 2212.539063 4136.29375 2018.828125 4562.465625 1515.15625 4562.465625 C 1515.15625 4562.465625 1302.070313 4485.004688 914.648438 4862.739063 L 197.890625 5666.684375 " transform="matrix(0.1,0,0,-0.1,0,598.27)"/>
<path style=" stroke:none;fill-rule:nonzero;fill:rgb(0.799561%,1.199341%,1.199341%);fill-opacity:1;" d="M 137.957031 199.652344 C 137.957031 199.652344 181.542969 158.972656 205.757813 204.496094 L 210.601563 198.683594 C 210.601563 198.683594 203.820313 179.3125 175.730469 175.4375 C 175.730469 175.4375 155.390625 176.40625 144.734375 180.28125 L 137.957031 183.1875 C 137.957031 183.1875 69.1875 126.039063 53.6875 87.296875 L 22.691406 27.242188 L 4.289063 12.714844 C 4.289063 12.714844 63.375 176.40625 137.957031 199.652344 "/>
<path style=" stroke:none;fill-rule:nonzero;fill:rgb(0.39978%,0.39978%,0.39978%);fill-opacity:1;" d="M 26.566406 163.332031 L 44.003906 163.332031 C 44.003906 163.332031 73.058594 219.511719 88.558594 228.226563 C 88.558594 228.226563 130.207031 214.667969 148.609375 223.382813 L 167.980469 242.757813 L 157.328125 250.988281 L 144.734375 235.976563 C 144.734375 235.976563 114.710938 231.617188 107.445313 235.492188 L 87.589844 246.632813 C 87.589844 246.632813 29.472656 194.324219 26.566406 163.332031 "/>
<path style="fill:none;stroke-width:20;stroke-linecap:butt;stroke-linejoin:miter;stroke:rgb(0.39978%,0.39978%,0.39978%);stroke-opacity:1;stroke-miterlimit:10;" d="M 8024.140625 4562.465625 C 8024.140625 4562.465625 8121.015625 5046.7625 8275.976563 5095.2 C 8249.804688 5084.73125 8524.921875 5125.04375 8576.210938 5240.5125 C 8614.960938 5327.660938 8619.84375 5279.223438 8619.84375 5279.223438 " transform="matrix(0.1,0,0,-0.1,0,598.27)"/>
<path style="fill:none;stroke-width:20;stroke-linecap:butt;stroke-linejoin:miter;stroke:rgb(0.39978%,0.39978%,0.39978%);stroke-opacity:1;stroke-miterlimit:10;" d="M 9622.304688 5414.848438 C 9622.304688 5414.848438 9506.09375 4988.676563 9176.757813 4761.059375 " transform="matrix(0.1,0,0,-0.1,0,598.27)"/>
<g clip-path="url(#clip4)" clip-rule="nonzero">
<path style="fill:none;stroke-width:20;stroke-linecap:butt;stroke-linejoin:miter;stroke:rgb(0.39978%,0.39978%,0.39978%);stroke-opacity:1;stroke-miterlimit:10;" d="M 9283.320313 4136.29375 C 9283.320313 4136.29375 9409.21875 4601.215625 10019.414063 4514.067188 C 10019.414063 4514.067188 10794.296875 4998.325 11113.984375 5579.496875 L 11404.492188 5879.770313 " transform="matrix(0.1,0,0,-0.1,0,598.27)"/>
</g>
<path style=" stroke:none;fill-rule:nonzero;fill:rgb(0.39978%,0.39978%,0.39978%);fill-opacity:1;" d="M 996.617188 208.855469 L 989.351563 197.714844 C 989.351563 197.714844 1092.019531 101.5625 1102.679688 63.191406 L 1102.679688 54.398438 L 1145.300781 3.511719 C 1145.300781 3.511719 1122.050781 70.347656 1085.238281 116.839844 L 1037.300781 175.925781 L 1039.71875 175.925781 "/>
<path style=" stroke:none;fill-rule:nonzero;fill:rgb(0.799561%,1.199341%,1.199341%);fill-opacity:1;" d="M 1059.089844 246.632813 C 1059.089844 246.632813 1054.730469 244.695313 1048.921875 235.976563 C 1048.921875 235.976563 1093.960938 195.296875 1101.710938 170.113281 L 1115.75 165.753906 C 1115.75 165.753906 1097.839844 213.699219 1059.089844 246.632813 "/>
<path style="fill:none;stroke-width:20;stroke-linecap:butt;stroke-linejoin:miter;stroke:rgb(0.39978%,0.39978%,0.39978%);stroke-opacity:1;stroke-miterlimit:10;" d="M 7103.984375 4761.059375 C 7103.984375 4761.059375 7070.078125 5070.98125 6915.078125 5255.004688 " transform="matrix(0.1,0,0,-0.1,0,598.27)"/>
<path style="fill:none;stroke-width:20;stroke-linecap:butt;stroke-linejoin:miter;stroke:rgb(0.39978%,0.39978%,0.39978%);stroke-opacity:1;stroke-miterlimit:10;" d="M 10852.382813 4252.54375 C 10852.382813 4252.54375 10276.09375 3739.145313 9399.53125 3898.989063 " transform="matrix(0.1,0,0,-0.1,0,598.27)"/>
<path style="fill:none;stroke-width:20;stroke-linecap:butt;stroke-linejoin:miter;stroke:rgb(0.39978%,0.39978%,0.39978%);stroke-opacity:1;stroke-miterlimit:10;" d="M 459.414063 4310.629688 C 335.46875 4400.864063 1101.523438 3748.910938 2106.015625 3866.645313 " transform="matrix(0.1,0,0,-0.1,0,598.27)"/>
<path style=" stroke:none;fill-rule:nonzero;fill:rgb(97.999573%,97.999573%,97.599792%);fill-opacity:1;" d="M 202.609375 370.488281 L 208.179688 340.746094 L 142.3125 285.535156 L 203.335938 240.980469 L 221.738281 115.0625 L 288.570313 115.0625 L 304.070313 200.300781 L 344.753906 115.0625 L 408.679688 118.9375 L 408.679688 152.679688 C 408.679688 152.679688 442.578125 117.96875 480.355469 121.84375 C 480.355469 121.84375 522.003906 109.25 555.90625 163.492188 L 555.90625 120.875 L 639.203125 121.84375 L 639.203125 128.136719 L 683.761719 128.621094 L 682.46875 122.8125 L 780.621094 122.8125 L 785.464844 145.089844 L 825.175781 146.058594 L 830.863281 120.925781 L 924.941406 115.0625 L 939.46875 141.214844 L 927.925781 165.328125 L 919.128906 162.523438 L 920.097656 176.085938 L 935.902344 174.785156 L 943.722656 189.863281 C 943.722656 189.863281 945.28125 226.449219 938.503906 227.417969 L 1013.078125 287.472656 L 928.816406 354.304688 L 944.3125 376.582031 C 944.3125 376.582031 960.804688 406.3125 949.246094 421.476563 C 949.246094 421.476563 927.839844 448.3125 914.769531 448.5 L 196.070313 458.914063 L 191.714844 454.070313 L 205.757813 373.191406 "/>
<path style="fill:none;stroke-width:30;stroke-linecap:butt;stroke-linejoin:miter;stroke:rgb(0.799561%,1.199341%,1.199341%);stroke-opacity:1;stroke-miterlimit:10;" d="M 2026.09375 2277.817188 L 2081.796875 2575.239063 L 1423.125 3127.348438 L 2033.359375 3572.895313 L 2217.382813 4832.075 L 2885.703125 4832.075 L 3040.703125 3979.692188 L 3447.539063 4832.075 L 4086.796875 4793.325 L 4086.796875 4455.903125 C 4086.796875 4455.903125 4425.78125 4803.0125 4803.554688 4764.2625 C 4803.554688 4764.2625 5220.039063 4890.2 5559.0625 4347.778125 L 5559.0625 4773.95 L 6392.03125 4764.2625 L 6392.03125 4701.332813 L 6837.617188 4696.489063 L 6824.6875 4754.575 L 7806.210938 4754.575 L 7854.648438 4531.801563 L 8251.757813 4522.114063 L 8308.632813 4773.442188 L 9249.414063 4832.075 L 9394.6875 4570.551563 L 9279.257813 4329.41875 L 9191.289063 4357.465625 L 9200.976563 4221.840625 L 9359.023438 4234.848438 L 9437.226563 4084.067188 C 9437.226563 4084.067188 9452.8125 3718.207813 9385.039063 3708.520313 L 10130.78125 3107.973438 L 9288.164063 2439.653125 L 9443.125 2216.879688 C 9443.125 2216.879688 9608.046875 1919.575 9492.460938 1767.934375 C 9492.460938 1767.934375 9278.398438 1499.575 9147.695313 1497.7 L 1960.703125 1393.559375 L 1917.148438 1441.996875 L 2057.578125 2250.785938 Z M 2026.09375 2277.817188 " transform="matrix(0.1,0,0,-0.1,0,598.27)"/>
<path style=" stroke:none;fill-rule:nonzero;fill:rgb(0.799561%,1.199341%,1.199341%);fill-opacity:1;" d="M 362.1875 488.78125 L 779.167969 487.8125 L 805.320313 462.144531 L 805.320313 457.785156 L 783.039063 435.507813 L 358.3125 435.507813 L 336.519531 456.816406 L 336.519531 462.144531 "/>
<path style="fill:none;stroke-width:40;stroke-linecap:butt;stroke-linejoin:miter;stroke:rgb(0.799561%,1.199341%,1.199341%);stroke-opacity:1;stroke-miterlimit:10;" d="M 3621.875 1094.8875 L 7791.679688 1104.575 L 8053.203125 1361.254688 L 8053.203125 1404.848438 L 7830.390625 1627.621875 L 3583.125 1627.621875 L 3365.195313 1414.535938 L 3365.195313 1361.254688 Z M 3621.875 1094.8875 " transform="matrix(0.1,0,0,-0.1,0,598.27)"/>
<path style=" stroke:none;fill-rule:nonzero;fill:rgb(97.599792%,97.999573%,98.399353%);fill-opacity:1;" d="M 362.1875 483.453125 L 340.394531 461.175781 L 362.1875 440.835938 L 779.652344 439.382813 L 801.445313 459.722656 L 778.683594 483.453125 "/>
<path style=" stroke:none;fill-rule:nonzero;fill:rgb(0.39978%,0.39978%,0.39978%);fill-opacity:1;" d="M 222.222656 426.851563 L 432.167969 399.246094 L 478.660156 413.050781 L 605.0625 413.050781 L 621.042969 382.539063 L 621.042969 378.179688 L 698.773438 413.777344 L 754.710938 421.039063 C 754.710938 421.039063 817.910156 420.316406 834.617188 378.179688 C 834.617188 378.179688 877.480469 429.03125 921.792969 426.851563 L 886.195313 353.480469 L 932.691406 325.113281 C 932.691406 325.113281 966.105469 298.273438 966.105469 293.914063 L 918.886719 259.042969 L 910.894531 259.042969 L 893.460938 180.585938 L 614.507813 149.351563 L 585.449219 144.265625 L 576.246094 222.722656 L 384.308594 216.410156 L 358.761719 164.535156 L 326.347656 216.183594 L 275.980469 208.917969 L 257.890625 144.871094 L 244.742188 193.664063 "/>
<path style="fill:none;stroke-width:30;stroke-linecap:butt;stroke-linejoin:miter;stroke:rgb(100%,100%,100%);stroke-opacity:1;stroke-miterlimit:10;" d="M 2081.796875 3233.871875 L 2556.40625 3553.520313 L 3021.328125 3233.871875 L 3563.75 3553.520313 L 3776.835938 3330.746875 L 4241.757813 3311.371875 L 4183.632813 3553.520313 L 3718.710938 3233.871875 L 4987.578125 3301.684375 L 5161.914063 3393.715625 L 5820.585938 3340.434375 L 5776.992188 3495.395313 L 5210.351563 3553.520313 L 5820.585938 3485.746875 L 6014.296875 3233.871875 L 6634.21875 3553.520313 L 6401.71875 3960.35625 L 6537.34375 4212.153125 L 7099.140625 4125.004688 L 7050.703125 3815.04375 L 6682.617188 3650.395313 L 7099.140625 3853.79375 L 7564.0625 4057.192188 L 7728.710938 4125.004688 L 8464.84375 3330.746875 L 8600.46875 3723.0125 L 8522.96875 4095.942188 L 8038.671875 3723.0125 L 8658.554688 2817.3875 L 8222.695313 2362.153125 L 7389.6875 2856.1375 L 7389.6875 2497.778125 L 6309.726563 3185.473438 L 6149.882813 2747.54375 L 6082.109375 2613.989063 L 5694.648438 2865.825 L 5448.476563 2865.825 L 5307.226563 2536.489063 L 6140.195313 2429.965625 L 3292.539063 2488.051563 L 2420.78125 2459.028125 Z M 2081.796875 3233.871875 " transform="matrix(0.1,0,0,-0.1,0,598.27)"/>
<path style=" stroke:none;fill-rule:nonzero;fill:rgb(0.799561%,1.199341%,1.199341%);fill-opacity:1;" d="M 202.582031 368.503906 L 210.84375 339.859375 L 142.558594 286.828125 L 202.851563 244.691406 L 206.484375 214.183594 L 107.445313 286.828125 "/>
<path style=" stroke:none;fill-rule:nonzero;fill:rgb(0.799561%,1.199341%,1.199341%);fill-opacity:1;" d="M 945.683594 376.761719 L 930.753906 353.660156 L 1011.390625 286.34375 L 940.195313 232.101563 L 944.554688 212.730469 L 1047.949219 286.828125 "/>
<path style=" stroke:none;fill-rule:nonzero;fill:rgb(100%,100%,100%);fill-opacity:1;" d="M 161.6875 284.40625 L 238.207031 284.40625 L 255.640625 165.269531 L 277.917969 284.40625 L 306.007813 284.40625 L 362.1875 165.269531 L 350.5625 284.40625 L 409.648438 284.40625 L 387.371094 262.128906 L 399.960938 129.429688 L 352.5 129.429688 L 302.132813 226.289063 L 281.792969 129.429688 L 233.363281 129.429688 L 207.210938 253.410156 "/>
<path style="fill:none;stroke-width:50;stroke-linecap:butt;stroke-linejoin:miter;stroke:rgb(0.39978%,0.39978%,0.39978%);stroke-opacity:1;stroke-miterlimit:10;" d="M 1616.875 3138.6375 L 2382.070313 3138.6375 L 2556.40625 4330.004688 L 2779.179688 3138.6375 L 3060.078125 3138.6375 L 3621.875 4330.004688 L 3505.625 3138.6375 L 4096.484375 3138.6375 L 3873.710938 3361.410938 L 3999.609375 4688.403125 L 3525 4688.403125 L 3021.328125 3719.809375 L 2817.929688 4688.403125 L 2333.632813 4688.403125 L 2072.109375 3448.598438 Z M 1616.875 3138.6375 " transform="matrix(0.1,0,0,-0.1,0,598.27)"/>
<path style=" stroke:none;fill-rule:nonzero;fill:rgb(100%,100%,100%);fill-opacity:1;" d="M 567.046875 132.335938 L 636.300781 132.335938 C 636.300781 132.335938 669.230469 136.695313 672.136719 158.003906 L 672.136719 173.5 C 672.136719 173.5 674.074219 193.359375 646.953125 200.621094 C 646.953125 200.621094 678.433594 206.917969 682.789063 229.679688 C 682.789063 229.679688 684.246094 248.082031 682.789063 250.503906 C 682.789063 250.503906 680.855469 275.6875 640.65625 285.375 L 567.046875 286.828125 "/>
<path style="fill:none;stroke-width:50;stroke-linecap:butt;stroke-linejoin:miter;stroke:rgb(0.39978%,0.39978%,0.39978%);stroke-opacity:1;stroke-miterlimit:10;" d="M 5670.46875 4659.340625 L 6363.007813 4659.340625 C 6363.007813 4659.340625 6692.304688 4615.746875 6721.367188 4402.660938 L 6721.367188 4247.7 C 6721.367188 4247.7 6740.742188 4049.10625 6469.53125 3976.489063 C 6469.53125 3976.489063 6784.335938 3913.520313 6827.890625 3685.903125 C 6827.890625 3685.903125 6842.460938 3501.879688 6827.890625 3477.660938 C 6827.890625 3477.660938 6808.554688 3225.825 6406.5625 3128.95 L 5670.46875 3114.41875 Z M 5670.46875 4659.340625 " transform="matrix(0.1,0,0,-0.1,0,598.27)"/>
<path style=" stroke:none;fill-rule:nonzero;fill:rgb(0.39978%,0.39978%,0.39978%);fill-opacity:1;" d="M 601.429688 261.644531 L 601.429688 218.539063 L 629.035156 220.480469 C 629.035156 220.480469 644.53125 227.257813 644.53125 240.09375 C 644.53125 240.09375 645.984375 255.832031 631.457031 261.644531 "/>
<path style=" stroke:none;fill-rule:nonzero;fill:rgb(0.39978%,0.39978%,0.39978%);fill-opacity:1;" d="M 601.429688 189.484375 L 601.429688 153.644531 L 625.242188 155.097656 C 625.242188 155.097656 637.269531 161.394531 635.816406 171.566406 C 635.816406 171.566406 636.824219 186.09375 623 189.484375 "/>
<path style=" stroke:none;fill-rule:nonzero;fill:rgb(100%,100%,100%);fill-opacity:1;" d="M 688.117188 157.035156 L 676.011719 132.335938 L 734.128906 130.882813 L 724.441406 153.644531 L 731.222656 257.769531 L 746.71875 284.890625 L 683.4375 286.828125 L 693.929688 255.347656 "/>
<path style="fill:none;stroke-width:50;stroke-linecap:butt;stroke-linejoin:miter;stroke:rgb(0.39978%,0.39978%,0.39978%);stroke-opacity:1;stroke-miterlimit:10;" d="M 6881.171875 4412.348438 L 6760.117188 4659.340625 L 7341.289063 4673.871875 L 7244.414063 4446.254688 L 7312.226563 3405.004688 L 7467.1875 3133.79375 L 6834.375 3114.41875 L 6939.296875 3429.223438 Z M 6881.171875 4412.348438 " transform="matrix(0.1,0,0,-0.1,0,598.27)"/>
<path style=" stroke:none;fill-rule:nonzero;fill:rgb(100%,100%,100%);fill-opacity:1;" d="M 754.46875 283.4375 L 742.359375 130.882813 L 775.777344 130.882813 L 788.851563 252.925781 L 846.96875 253.894531 L 850.84375 283.4375 "/>
<path style="fill:none;stroke-width:50;stroke-linecap:butt;stroke-linejoin:miter;stroke:rgb(0.39978%,0.39978%,0.39978%);stroke-opacity:1;stroke-miterlimit:10;" d="M 7544.6875 3148.325 L 7423.59375 4673.871875 L 7757.773438 4673.871875 L 7888.515625 3453.442188 L 8469.6875 3443.754688 L 8508.4375 3148.325 Z M 7544.6875 3148.325 " transform="matrix(0.1,0,0,-0.1,0,598.27)"/>
<path style=" stroke:none;fill-rule:nonzero;fill:rgb(100%,100%,100%);fill-opacity:1;" d="M 857.140625 283.4375 L 836.3125 129.429688 L 921.550781 127.007813 L 926.878906 138.148438 L 924.457031 152.675781 L 873.605469 155.097656 L 878.449219 187.0625 L 929.785156 186.09375 L 935.59375 199.167969 L 933.65625 216.121094 L 884.503906 217.570313 L 888.132813 251.957031 L 945.765625 251.957031 L 995.164063 283.4375 "/>
<path style="fill:none;stroke-width:50;stroke-linecap:butt;stroke-linejoin:miter;stroke:rgb(0.39978%,0.39978%,0.39978%);stroke-opacity:1;stroke-miterlimit:10;" d="M 8571.40625 3148.325 L 8363.125 4688.403125 L 9215.507813 4712.621875 L 9268.789063 4601.215625 L 9244.570313 4455.942188 L 8736.054688 4431.723438 L 8784.492188 4112.075 L 9297.851563 4121.7625 L 9355.9375 3991.020313 L 9336.5625 3821.489063 L 8845.039063 3806.996875 L 8881.328125 3463.129688 L 9457.65625 3463.129688 L 9951.640625 3148.325 Z M 8571.40625 3148.325 " transform="matrix(0.1,0,0,-0.1,0,598.27)"/>
<path style=" stroke:none;fill-rule:nonzero;fill:rgb(100%,100%,100%);fill-opacity:1;" d="M 224.644531 317.339844 L 197.039063 293.605469 L 271.140625 293.605469 L 258.0625 313.949219 L 244.019531 406.449219 L 296.320313 406.449219 L 291.964844 434.539063 L 204.789063 438.898438 "/>
<path style="fill:none;stroke-width:50;stroke-linecap:butt;stroke-linejoin:miter;stroke:rgb(0.39978%,0.39978%,0.39978%);stroke-opacity:1;stroke-miterlimit:10;" d="M 2246.445313 2809.301563 L 1970.390625 3046.645313 L 2711.40625 3046.645313 L 2580.625 2843.207813 L 2440.195313 1918.207813 L 2963.203125 1918.207813 L 2919.648438 1637.309375 L 2047.890625 1593.715625 Z M 2246.445313 2809.301563 " transform="matrix(0.1,0,0,-0.1,0,598.27)"/>
<path style=" stroke:none;fill-rule:nonzero;fill:rgb(100%,100%,100%);fill-opacity:1;" d="M 300.679688 421.464844 L 318.597656 298.449219 L 388.339844 298.449219 L 385.917969 322.382813 L 344.507813 322.382813 L 341.84375 346.398438 L 380.589844 346.882813 L 378.167969 370.128906 L 337.972656 371.578125 L 334.582031 397.730469 L 380.105469 397.246094 L 378.167969 421.464844 "/>
<path style="fill:none;stroke-width:50;stroke-linecap:butt;stroke-linejoin:miter;stroke:rgb(0.39978%,0.39978%,0.39978%);stroke-opacity:1;stroke-miterlimit:10;" d="M 3006.796875 1768.051563 L 3185.976563 2998.207813 L 3883.398438 2998.207813 L 3859.179688 2758.871875 L 3445.078125 2758.871875 L 3418.4375 2518.715625 L 3805.898438 2513.871875 L 3781.679688 2281.410938 L 3379.726563 2266.91875 L 3345.820313 2005.395313 L 3801.054688 2010.239063 L 3781.679688 1768.051563 Z M 3006.796875 1768.051563 " transform="matrix(0.1,0,0,-0.1,0,598.27)"/>
<path style=" stroke:none;fill-rule:nonzero;fill:rgb(100%,100%,100%);fill-opacity:1;" d="M 492.945313 329.445313 C 492.945313 329.445313 468.246094 312.417969 445.484375 322.386719 L 441.609375 324.351563 C 441.609375 324.351563 405.773438 346.394531 425.628906 384.171875 L 427.566406 388.046875 C 427.566406 388.046875 444.03125 402.574219 466.3125 393.859375 L 467.277344 390.46875 L 468.730469 372.0625 L 445.484375 373.03125 L 445 348.816406 L 498.757813 348.816406 L 495.367188 410.808594 C 495.367188 410.808594 461.46875 432.117188 424.175781 421.464844 C 424.175781 421.464844 390.1875 415.789063 388.339844 366.253906 L 388.339844 351.238281 C 388.339844 351.238281 393.183594 312.496094 443.550781 298.449219 C 443.550781 298.449219 483.261719 295.0625 495.367188 302.324219 "/>
<path style="fill:none;stroke-width:50;stroke-linecap:butt;stroke-linejoin:miter;stroke:rgb(0.39978%,0.39978%,0.39978%);stroke-opacity:1;stroke-miterlimit:10;" d="M 4929.453125 2688.246875 C 4929.453125 2688.246875 4682.460938 2858.520313 4454.84375 2758.832813 L 4416.09375 2739.184375 C 4416.09375 2739.184375 4057.734375 2518.754688 4256.289063 2140.98125 L 4275.664063 2102.23125 C 4275.664063 2102.23125 4440.3125 1956.957813 4663.125 2044.10625 L 4672.773438 2078.0125 L 4687.304688 2262.075 L 4454.84375 2252.3875 L 4450 2494.535938 L 4987.578125 2494.535938 L 4953.671875 1874.614063 C 4953.671875 1874.614063 4614.6875 1661.528125 4241.757813 1768.051563 C 4241.757813 1768.051563 3901.875 1824.809375 3883.398438 2320.160938 L 3883.398438 2470.317188 C 3883.398438 2470.317188 3931.835938 2857.739063 4435.507813 2998.207813 C 4435.507813 2998.207813 4832.617188 3032.075 4953.671875 2959.457813 Z M 4929.453125 2688.246875 " transform="matrix(0.1,0,0,-0.1,0,598.27)"/>
<path style=" stroke:none;fill-rule:nonzero;fill:rgb(100%,100%,100%);fill-opacity:1;" d="M 512.320313 417.589844 L 516.679688 298.449219 L 585.449219 298.449219 L 585.449219 319.761719 L 544.28125 319.761719 L 544.28125 345.429688 L 582.058594 345.429688 L 582.542969 369.640625 L 542.828125 370.128906 L 542.828125 394.34375 L 589.320313 395.308594 L 589.320313 419.523438 L 512.320313 419.523438 "/>
<path style="fill:none;stroke-width:50;stroke-linecap:butt;stroke-linejoin:miter;stroke:rgb(0.39978%,0.39978%,0.39978%);stroke-opacity:1;stroke-miterlimit:10;" d="M 5123.203125 1806.801563 L 5166.796875 2998.207813 L 5854.492188 2998.207813 L 5854.492188 2785.082813 L 5442.8125 2785.082813 L 5442.8125 2528.403125 L 5820.585938 2528.403125 L 5825.429688 2286.29375 L 5428.28125 2281.410938 L 5428.28125 2039.2625 L 5893.203125 2029.614063 L 5893.203125 1787.465625 L 5123.203125 1787.465625 Z M 5123.203125 1806.801563 " transform="matrix(0.1,0,0,-0.1,0,598.27)"/>
<path style=" stroke:none;fill-rule:nonzero;fill:rgb(100%,100%,100%);fill-opacity:1;" d="M 601.429688 419.523438 L 601.429688 298.449219 L 630.972656 298.449219 L 687.152344 375.9375 L 683.4375 298.449219 L 708.460938 298.449219 L 716.691406 419.523438 L 687.152344 419.523438 L 627.582031 335.742188 L 630.003906 419.523438 "/>
<path style="fill:none;stroke-width:50;stroke-linecap:butt;stroke-linejoin:miter;stroke:rgb(0.39978%,0.39978%,0.39978%);stroke-opacity:1;stroke-miterlimit:10;" d="M 6014.296875 1787.465625 L 6014.296875 2998.207813 L 6309.726563 2998.207813 L 6871.523438 2223.325 L 6834.375 2998.207813 L 7084.609375 2998.207813 L 7166.914063 1787.465625 L 6871.523438 1787.465625 L 6275.820313 2625.278125 L 6300.039063 1787.465625 Z M 6014.296875 1787.465625 " transform="matrix(0.1,0,0,-0.1,0,598.27)"/>
<path style=" stroke:none;fill-rule:nonzero;fill:rgb(100%,100%,100%);fill-opacity:1;" d="M 738.003906 419.523438 L 727.347656 298.449219 L 784.496094 298.449219 C 784.496094 298.449219 819.847656 300.386719 836.316406 331.382813 C 836.316406 331.382813 851.328125 358.019531 841.15625 387.5625 C 841.15625 387.5625 833.894531 412.261719 803.382813 419.523438 "/>
<path style="fill:none;stroke-width:50;stroke-linecap:butt;stroke-linejoin:miter;stroke:rgb(0.39978%,0.39978%,0.39978%);stroke-opacity:1;stroke-miterlimit:10;" d="M 7380.039063 1787.465625 L 7273.476563 2998.207813 L 7844.960938 2998.207813 C 7844.960938 2998.207813 8198.476563 2978.832813 8363.164063 2668.871875 C 8363.164063 2668.871875 8513.28125 2402.504688 8411.5625 2107.075 C 8411.5625 2107.075 8338.945313 1860.082813 8033.828125 1787.465625 Z M 7380.039063 1787.465625 " transform="matrix(0.1,0,0,-0.1,0,598.27)"/>
<path style=" stroke:none;fill-rule:nonzero;fill:rgb(0.799561%,1.199341%,1.199341%);fill-opacity:1;" d="M 765.121094 395.796875 L 759.3125 322.386719 L 783.527344 322.386719 C 783.527344 322.386719 811.128906 333.320313 812.101563 361.410156 C 812.101563 361.410156 815.972656 385.140625 792.726563 395.796875 "/>
<path style=" stroke:none;fill-rule:nonzero;fill:rgb(100%,100%,100%);fill-opacity:1;" d="M 857.140625 427.273438 L 854.71875 395.796875 C 854.71875 395.796875 864.402344 406.449219 896.367188 408.871094 C 896.367188 408.871094 921.550781 407.417969 908.476563 388.53125 L 904.117188 386.59375 C 904.117188 386.59375 876.511719 371.578125 871.667969 370.128906 C 871.667969 370.128906 846.773438 354.628906 844.691406 339.132813 C 844.691406 339.132813 837.28125 309.105469 863.433594 301.355469 L 877.980469 298.449219 L 968.527344 298.449219 L 927.363281 330.898438 C 927.363281 330.898438 914.285156 322.589844 894.429688 322.386719 C 894.429688 322.386719 862.949219 324.601563 883.289063 343.007813 C 883.289063 343.007813 907.988281 353.175781 921.550781 362.863281 C 921.550781 362.863281 947.21875 374.484375 946.25 405.480469 C 946.25 405.480469 944.3125 427.273438 921.066406 435.023438 C 921.066406 435.023438 890.632813 444.128906 857.140625 427.273438 "/>
<path style="fill:none;stroke-width:50;stroke-linecap:butt;stroke-linejoin:miter;stroke:rgb(0.39978%,0.39978%,0.39978%);stroke-opacity:1;stroke-miterlimit:10;" d="M 8571.40625 1709.965625 L 8547.1875 2024.73125 C 8547.1875 2024.73125 8644.023438 1918.207813 8963.671875 1893.989063 C 8963.671875 1893.989063 9215.507813 1908.520313 9084.765625 2097.3875 L 9041.171875 2116.7625 C 9041.171875 2116.7625 8765.117188 2266.91875 8716.679688 2281.410938 C 8716.679688 2281.410938 8467.734375 2436.410938 8446.914063 2591.371875 C 8446.914063 2591.371875 8372.8125 2891.645313 8634.335938 2969.145313 L 8779.804688 2998.207813 L 9685.273438 2998.207813 L 9273.632813 2673.715625 C 9273.632813 2673.715625 9142.851563 2756.801563 8944.296875 2758.832813 C 8944.296875 2758.832813 8629.492188 2736.684375 8832.890625 2552.621875 C 8832.890625 2552.621875 9079.882813 2450.942188 9215.507813 2354.067188 C 9215.507813 2354.067188 9472.1875 2237.85625 9462.5 1927.895313 C 9462.5 1927.895313 9443.125 1709.965625 9210.664063 1632.465625 C 9210.664063 1632.465625 8906.328125 1541.410938 8571.40625 1709.965625 Z M 8571.40625 1709.965625 " transform="matrix(0.1,0,0,-0.1,0,598.27)"/>
<path style=" stroke:none;fill-rule:nonzero;fill:rgb(100%,100%,100%);fill-opacity:1;" d="M 554.664063 216.035156 C 551.066406 258.542969 514.015625 290.117188 471.90625 286.550781 C 429.796875 282.988281 398.574219 245.640625 402.171875 203.128906 C 405.769531 160.621094 442.820313 129.046875 484.933594 132.609375 C 527.039063 136.175781 558.261719 173.523438 554.664063 216.035156 "/>
<path style="fill:none;stroke-width:50;stroke-linecap:butt;stroke-linejoin:miter;stroke:rgb(0.39978%,0.39978%,0.39978%);stroke-opacity:1;stroke-miterlimit:10;" d="M 5546.640625 3822.348438 C 5510.664063 3397.270313 5140.15625 3081.528125 4719.0625 3117.192188 C 4297.96875 3152.817188 3985.742188 3526.29375 4021.71875 3951.410938 C 4057.695313 4376.489063 4428.203125 4692.23125 4849.335938 4656.60625 C 5270.390625 4620.942188 5582.617188 4247.465625 5546.640625 3822.348438 Z M 5546.640625 3822.348438 " transform="matrix(0.1,0,0,-0.1,0,598.27)"/>
<path style=" stroke:none;fill-rule:nonzero;fill:rgb(0.39978%,0.39978%,0.39978%);fill-opacity:1;" d="M 520.894531 216.425781 C 526.066406 184.574219 511.515625 155.710938 488.394531 151.953125 C 465.269531 148.199219 442.332031 170.972656 437.15625 202.824219 C 431.984375 234.675781 446.535156 263.539063 469.65625 267.296875 C 492.78125 271.054688 515.71875 248.277344 520.894531 216.425781 "/>
<path style=" stroke:none;fill-rule:nonzero;fill:rgb(0.799561%,1.199341%,1.199341%);fill-opacity:1;" d="M 399.429688 473.972656 L 403.828125 473.972656 C 407.390625 473.972656 409.859375 473.066406 411.230469 471.257813 C 411.714844 470.636719 411.957031 469.925781 411.957031 469.121094 C 411.957031 467.203125 411.214844 465.804688 409.730469 464.929688 C 408.394531 464.125 406.425781 463.722656 403.828125 463.722656 L 399.429688 463.722656 Z M 399.429688 458.765625 L 403.828125 458.765625 C 407.09375 458.765625 409.285156 457.980469 410.398438 456.40625 C 410.804688 455.824219 411.011719 455.101563 411.011719 454.242188 C 411.011719 452.820313 410.304688 451.742188 408.894531 451.011719 C 407.59375 450.335938 405.90625 449.996094 403.828125 449.996094 L 399.429688 449.996094 Z M 388.074219 479.09375 L 388.074219 444.734375 L 403.828125 444.734375 C 407.984375 444.734375 411.734375 445.273438 415.074219 446.351563 C 417.929688 447.265625 419.972656 448.679688 421.199219 450.597656 C 421.867188 451.621094 422.199219 452.835938 422.199219 454.242188 C 422.199219 456.546875 420.953125 458.390625 418.46875 459.777344 C 417.429688 460.363281 416.203125 460.808594 414.796875 461.121094 C 417.132813 461.558594 419.117188 462.425781 420.753906 463.722656 C 421.828125 464.601563 422.625 465.734375 423.144531 467.121094 C 423.40625 467.832031 423.535156 468.628906 423.535156 469.503906 C 423.535156 471.679688 422.699219 473.523438 421.03125 475.039063 C 419.730469 476.226563 417.894531 477.175781 415.519531 477.890625 C 412.847656 478.695313 410.191406 479.09375 407.558594 479.09375 "/>
<path style=" stroke:none;fill-rule:nonzero;fill:rgb(0.799561%,1.199341%,1.199341%);fill-opacity:1;" d="M 449.8125 452.625 L 445.914063 466.160156 L 453.707031 466.160156 Z M 444.285156 471.203125 L 441.726563 479.09375 L 430.773438 479.09375 L 442.628906 444.761719 L 457.105469 444.761719 L 468.792969 479.09375 L 457.730469 479.09375 L 455.269531 471.203125 "/>
<path style=" stroke:none;fill-rule:nonzero;fill:rgb(0.799561%,1.199341%,1.199341%);fill-opacity:1;" d="M 489.457031 444.734375 L 503.421875 467.828125 L 503.421875 444.734375 L 513.941406 444.734375 L 513.941406 479.09375 L 502.640625 479.09375 L 488.164063 457.09375 L 488.164063 479.09375 L 477.644531 479.09375 L 477.644531 444.734375 "/>
<path style=" stroke:none;fill-rule:nonzero;fill:rgb(0.799561%,1.199341%,1.199341%);fill-opacity:1;" d="M 539.882813 479.535156 C 535.242188 479.535156 531.300781 478.730469 528.054688 477.121094 C 524.804688 475.515625 523.183594 473.589844 523.183594 471.339844 L 523.183594 452.597656 C 523.183594 450.316406 524.816406 448.375 528.082031 446.777344 C 531.347656 445.179688 535.28125 444.378906 539.882813 444.378906 C 544.523438 444.378906 548.457031 445.183594 551.683594 446.789063 C 554.914063 448.398438 556.527344 450.335938 556.527344 452.597656 L 556.527344 456.515625 L 545.617188 456.515625 L 545.617188 452.488281 C 545.617188 451.667969 545.023438 450.964844 543.835938 450.382813 C 542.648438 449.796875 541.21875 449.503906 539.550781 449.503906 C 537.878906 449.503906 536.460938 449.796875 535.289063 450.382813 C 534.121094 450.964844 533.535156 451.667969 533.535156 452.488281 L 533.535156 471.285156 C 533.535156 472.105469 534.121094 472.804688 535.289063 473.382813 C 536.460938 473.957031 537.878906 474.246094 539.550781 474.246094 C 541.21875 474.246094 542.648438 473.960938 543.835938 473.386719 C 545.023438 472.8125 545.617188 472.113281 545.617188 471.296875 L 545.617188 464.546875 L 539.773438 464.546875 L 539.773438 459.339844 L 556.527344 459.339844 L 556.527344 471.339844 C 556.527344 473.625 554.894531 475.5625 551.628906 477.148438 C 548.363281 478.738281 544.449219 479.535156 539.882813 479.535156 "/>
<path style=" stroke:none;fill-rule:nonzero;fill:rgb(0.799561%,1.199341%,1.199341%);fill-opacity:1;" d="M 596.828125 473.972656 L 601.226563 473.972656 C 604.789063 473.972656 607.257813 473.066406 608.632813 471.257813 C 609.113281 470.636719 609.355469 469.925781 609.355469 469.121094 C 609.355469 467.203125 608.613281 465.804688 607.128906 464.929688 C 605.792969 464.125 603.824219 463.722656 601.226563 463.722656 L 596.828125 463.722656 Z M 596.828125 458.765625 L 601.226563 458.765625 C 604.492188 458.765625 606.683594 457.980469 607.796875 456.40625 C 608.203125 455.824219 608.410156 455.101563 608.410156 454.242188 C 608.410156 452.820313 607.703125 451.742188 606.292969 451.011719 C 604.992188 450.335938 603.304688 449.996094 601.226563 449.996094 L 596.828125 449.996094 Z M 585.472656 479.09375 L 585.472656 444.734375 L 601.226563 444.734375 C 605.382813 444.734375 609.132813 445.273438 612.472656 446.351563 C 615.328125 447.265625 617.371094 448.679688 618.597656 450.597656 C 619.265625 451.621094 619.597656 452.835938 619.597656 454.242188 C 619.597656 456.546875 618.355469 458.390625 615.867188 459.777344 C 614.828125 460.363281 613.605469 460.808594 612.195313 461.121094 C 614.53125 461.558594 616.515625 462.425781 618.152344 463.722656 C 619.226563 464.601563 620.023438 465.734375 620.546875 467.121094 C 620.804688 467.832031 620.933594 468.628906 620.933594 469.503906 C 620.933594 471.679688 620.101563 473.523438 618.429688 475.039063 C 617.128906 476.226563 615.292969 477.175781 612.917969 477.890625 C 610.246094 478.695313 607.59375 479.09375 604.957031 479.09375 "/>
<path style=" stroke:none;fill-rule:nonzero;fill:rgb(0.799561%,1.199341%,1.199341%);fill-opacity:1;" d="M 647.210938 452.625 L 643.3125 466.160156 L 651.105469 466.160156 Z M 641.683594 471.203125 L 639.128906 479.09375 L 628.171875 479.09375 L 640.03125 444.761719 L 654.503906 444.761719 L 666.191406 479.09375 L 655.132813 479.09375 L 652.667969 471.203125 "/>
<path style=" stroke:none;fill-rule:nonzero;fill:rgb(0.799561%,1.199341%,1.199341%);fill-opacity:1;" d="M 686.855469 444.734375 L 700.820313 467.828125 L 700.820313 444.734375 L 711.34375 444.734375 L 711.34375 479.09375 L 700.039063 479.09375 L 685.566406 457.09375 L 685.566406 479.09375 L 675.042969 479.09375 L 675.042969 444.734375 "/>
<path style=" stroke:none;fill-rule:nonzero;fill:rgb(0.799561%,1.199341%,1.199341%);fill-opacity:1;" d="M 737.28125 479.535156 C 732.640625 479.535156 728.699219 478.730469 725.453125 477.121094 C 722.203125 475.515625 720.582031 473.589844 720.582031 471.339844 L 720.582031 452.597656 C 720.582031 450.316406 722.214844 448.375 725.480469 446.777344 C 728.746094 445.179688 732.679688 444.378906 737.28125 444.378906 C 741.921875 444.378906 745.855469 445.183594 749.085938 446.789063 C 752.3125 448.398438 753.929688 450.335938 753.929688 452.597656 L 753.929688 456.515625 L 743.015625 456.515625 L 743.015625 452.488281 C 743.015625 451.667969 742.421875 450.964844 741.234375 450.382813 C 740.046875 449.796875 738.617188 449.503906 736.949219 449.503906 C 735.277344 449.503906 733.859375 449.796875 732.6875 450.382813 C 731.519531 450.964844 730.9375 451.667969 730.9375 452.488281 L 730.9375 471.285156 C 730.9375 472.105469 731.519531 472.804688 732.6875 473.382813 C 733.859375 473.957031 735.277344 474.246094 736.949219 474.246094 C 738.617188 474.246094 740.046875 473.960938 741.234375 473.386719 C 742.421875 472.8125 743.015625 472.113281 743.015625 471.296875 L 743.015625 464.546875 L 737.171875 464.546875 L 737.171875 459.339844 L 753.929688 459.339844 L 753.929688 471.339844 C 753.929688 473.625 752.292969 475.5625 749.027344 477.148438 C 745.761719 478.738281 741.847656 479.535156 737.28125 479.535156 "/>
</g>
</svg>
